
<svg width="28px" height="28px" viewBox="0 0 28 28" version="1.1" xmlns="http://www.w3.org/2000/svg" xmlns:xlink="http://www.w3.org/1999/xlink">
    <!-- Generator: Sketch 49.3 (51167) - http://www.bohemiancoding.com/sketch -->
    <desc>Created with Sketch.</desc>
    <defs>
        <polygon id="path-1" points="0 0 28 0 28 28 0 28"></polygon>
    </defs>
    <g id="MYLA" stroke="none" stroke-width="1" fill="none" fill-rule="evenodd">
        <g id="Desktop-/-HOME-PAGE" transform="translate(-706.000000, -5205.000000)">
            <g id="FOOTER" transform="translate(0.000000, 4986.000000)">
                <g id="Rose" transform="translate(706.000000, 219.000000)">
                    <mask id="mask-2" fill="white">
                        <use xlink:href="#path-1"></use>
                    </mask>
                    <g id="Clip-2"></g>
                    <path d="M16.1927725,26.6741562 C16.6503896,26.157134 16.9289886,25.4783931 16.9289886,24.7354653 C16.9289886,24.6406646 16.9240949,24.547002 16.915218,24.4544775 C17.1958656,24.4998862 17.481293,24.5244684 17.7695656,24.5244684 L17.769907,24.5244684 C18.9104788,24.5244684 20.0026826,24.1690512 20.927818,23.496911 C22.0820466,22.6584997 22.842845,21.4230181 23.0735314,20.016258 C23.1488715,20.04801 23.2256911,20.0774859 23.304673,20.1032061 C23.5987498,20.1988034 23.9035244,20.2471711 24.2102337,20.2471711 L24.2103475,20.2471711 C24.6189139,20.2471711 25.0112059,20.1622716 25.3693559,20.0082916 C23.5363836,23.4627691 20.1753275,25.9871074 16.1927725,26.6741562 M2.63064411,20.0082916 C2.98868029,20.1622716 3.38097232,20.2470573 3.78953872,20.2470573 L3.78976633,20.2470573 C4.09647565,20.2470573 4.40113644,20.1986896 4.6952132,20.1030923 C4.77465035,20.0771444 4.85181136,20.0475548 4.92749288,20.0158028 C5.1488471,21.3653183 5.87925912,22.6316414 7.07036105,23.496911 C7.9954965,24.1692788 9.08758652,24.524696 10.2286135,24.524696 C10.5174551,24.524696 10.8035654,24.5001138 11.084782,24.4544775 C11.0759051,24.547002 11.0710114,24.6406646 11.0710114,24.7354653 C11.0710114,25.4783931 11.3494966,26.157134 11.8072275,26.6741562 C7.8246725,25.9871074 4.46350257,23.4627691 2.63064411,20.0082916 M4.77533319,5.04685569 C4.7119428,5.73049034 4.8859534,6.43882097 5.32035394,7.03653183 C5.35108177,7.0789816 5.3834029,7.12006568 5.41629307,7.16058074 C4.18296881,7.79277492 3.21208303,8.89442024 2.75958721,10.2798985 C2.31335076,11.6455746 2.42567806,13.1033199 3.07608391,14.3846654 C3.09008214,14.4122065 3.10521845,14.4390648 3.11967191,14.4664922 C3.04091761,14.4850426 2.96250473,14.5066658 2.88488849,14.531817 C2.1784897,14.7613644 1.6191293,15.2359368 1.26883198,15.8305749 C1.18324927,15.2324088 1.13806797,14.6214964 1.13806797,14 C1.13806797,10.5228751 2.52560043,7.36418027 4.77533319,5.04685569 M19.671391,2.45821682 C18.9827461,2.61322104 18.3621576,3.0131365 17.9405034,3.593435 C17.8983949,3.65147623 17.859473,3.71111075 17.8218029,3.7713143 C16.8462511,2.78472719 15.4928607,2.17244911 13.9990326,2.17244911 C12.5058875,2.17244911 11.1528385,2.78393055 10.1772866,3.76972101 C10.1400718,3.71008649 10.1016051,3.65102101 10.0596104,3.59332119 C9.63784239,3.0130227 9.01736773,2.61322104 8.328609,2.45821682 C10.040377,1.61354621 11.9655328,1.13806334 13.9999431,1.13806334 C16.0343534,1.13806334 17.959623,1.61366001 19.671391,2.45821682 M23.140336,18.8919653 C23.106763,18.1461924 22.9185265,17.4187423 22.5834793,16.7488782 C23.2294467,16.4120114 23.7856205,15.953941 24.2327674,15.4131333 C24.4240766,15.4154094 24.6142478,15.4462509 24.798501,15.5059992 C25.7973833,15.8304611 26.345932,16.9071828 26.0215826,17.9059472 C25.7655174,18.6937146 25.0377229,19.2229141 24.2102337,19.2229141 C24.0110718,19.2229141 23.8129341,19.1913897 23.6211697,19.1290239 C23.4459072,19.0720069 23.2854396,18.990863 23.140336,18.8919653 M7.10689303,18.3891689 C7.78984762,18.9698088 8.67048461,19.3089517 9.61519483,19.3089517 C9.7987652,19.3089517 9.98188033,19.295864 10.1631746,19.2698023 C10.3539148,20.3680334 11.0092143,21.308529 11.9179616,21.8823405 C11.4159598,22.1909833 10.8319033,22.3623756 10.2286135,22.3623756 C9.54736598,22.3623756 8.89491162,22.1498992 8.34146916,21.7475938 C7.25745943,20.960054 6.81110917,19.6175945 7.10689303,18.3891689 M7.74125212,8.73702608 C7.28875629,9.76435586 7.29182908,10.9661507 7.80407347,12.0097548 C6.82487979,12.527346 6.13532441,13.4326754 5.86685418,14.4660369 C5.51075271,14.1826592 5.21644833,13.8238278 5.00419866,13.4059309 C4.61532083,12.6397867 4.54817482,11.768144 4.81493795,10.9513559 C5.23499884,9.66568576 6.40106328,8.79108409 7.74125212,8.73702608 M16.6792965,6.42994407 C15.6661884,6.42994407 14.6966683,6.83008714 13.9796855,7.52396436 C13.2627027,6.83020095 12.2931826,6.43017168 11.2800745,6.43017168 C11.1798107,6.43017168 11.0801159,6.43415491 10.981104,6.44177993 C11.4340551,5.21346817 12.615142,4.33476946 13.9990326,4.33476946 C15.3841752,4.33476946 16.5662864,5.21528907 17.0180993,6.44576315 C16.9059997,6.43597581 16.7931033,6.42994407 16.6792965,6.42994407 M22.1157334,14.4814008 C22.0459698,14.2149802 21.948096,13.9539084 21.8204047,13.7023964 C21.4485979,12.9695975 20.8677281,12.3867952 20.1518833,12.0170384 C20.6625344,10.9819698 20.6718666,9.7903037 20.2315481,8.76718476 C21.5717369,8.8236327 22.7355252,9.69937244 23.1535376,10.9856116 C23.5764436,12.2875561 23.1204198,13.6673441 22.1157334,14.4814008 M17.6469957,15.1683358 C18.4475127,14.8454673 18.9717068,14.1019705 19.048754,13.2806302 C19.0571757,13.2833615 19.0661665,13.2852962 19.0744744,13.2880276 C19.6534095,13.4770599 20.1240006,13.8803895 20.3997545,14.4234734 C20.6755084,14.9667848 20.7231934,15.5847532 20.5339327,16.163686 C20.2264268,17.1048644 19.3554633,17.7372862 18.3665961,17.7372862 C18.1270328,17.7372862 17.8887213,17.6990473 17.6587178,17.6239351 C17.6446058,17.6193828 17.6306075,17.6134649 17.6166093,17.6085712 C17.7915303,17.3434025 17.9113689,17.0427261 17.962582,16.7194024 C18.0488475,16.1755219 17.9368616,15.6306172 17.6469957,15.1683358 M11.7461133,10.8705534 C11.5620877,10.82321 11.3736236,10.7991969 11.1841353,10.7991969 C10.4874101,10.7991969 9.85088871,11.1169441 9.43105544,11.6348768 C8.7004158,10.6180172 8.92802939,9.19589322 9.94216176,8.45911101 C10.3344538,8.17413995 10.7971922,8.02346036 11.2800745,8.02346036 C12.0066171,8.02346036 12.6948068,8.37250439 13.1227203,8.95724133 C12.3602148,9.27976849 11.8096175,10.0080152 11.7461133,10.8705534 M18.0170954,8.45922482 C19.0279274,9.19338948 19.2569066,10.6085712 18.5349163,11.6246342 C18.1150831,11.1205859 17.4873248,10.8130812 16.800956,10.8130812 C16.6164752,10.8130812 16.4330186,10.8358425 16.2536591,10.8806822 C16.1928863,10.0024387 15.6279493,9.26099044 14.8471209,8.94381219 C15.2758311,8.36715549 15.9585581,8.02323275 16.6792965,8.02323275 C17.1622926,8.02323275 17.6246896,8.17391234 18.0170954,8.45922482 M13.9999431,11.9190512 C15.1491641,11.9190512 16.0810142,12.8507836 16.0810142,14 C16.0810142,15.1492164 15.1491641,16.0810626 13.9999431,16.0810626 C12.8508359,16.0810626 11.9189858,15.1492164 11.9189858,14 C11.9189858,12.8507836 12.8508359,11.9190512 13.9999431,11.9190512 M8.91073076,13.2653801 C8.9181282,13.2629902 8.92598087,13.2611693 8.93337831,13.2588932 C8.95864342,13.5421571 9.03682869,13.8209826 9.16941361,14.0821682 C9.42229231,14.5802985 9.8407599,14.959615 10.3564185,15.1619627 C9.87979564,15.9176367 9.90665404,16.8654159 10.367913,17.5861514 C10.3522076,17.5916141 10.3362747,17.5981011 10.3204556,17.6032223 C10.0909072,17.6778793 9.85362007,17.715663 9.61519483,17.715663 C8.62462047,17.715663 7.75331564,17.0822169 7.44694774,16.1393315 C7.05841134,14.9432269 7.71530417,13.6540287 8.91073076,13.2653801 M16.2603737,18.6048319 C16.2603737,19.8622781 15.2372506,20.885397 13.9797993,20.885397 C12.722348,20.885397 11.6993387,19.8622781 11.6993387,18.6048319 C11.6993387,18.5877609 11.7005906,18.570121 11.7010458,18.5528224 C11.8843886,18.6003934 12.0738769,18.6256585 12.267007,18.6256585 C12.9360772,18.6256585 13.5727124,18.3264616 13.9996017,17.8183163 C14.4266048,18.3264616 15.06324,18.6256585 15.7323102,18.6256585 L15.732424,18.6256585 C15.9115559,18.6256585 16.0880702,18.6047181 16.259008,18.563634 C16.2592356,18.5772908 16.2603737,18.5915166 16.2603737,18.6048319 M21.429706,3.77404565 C22.2792738,4.39144502 22.4684206,5.58504585 21.8511326,6.43472394 C21.7539416,6.56833257 21.640021,6.68691877 21.5142645,6.78934448 C21.0597201,6.66563699 20.5835525,6.5994017 20.0947523,6.5994017 C19.8298101,6.5994017 19.5656645,6.61920401 19.3039089,6.65835338 C19.1815666,5.9290824 18.9112754,5.24943097 18.5260394,4.65046823 C18.585788,4.49057033 18.6660218,4.3372732 18.7692445,4.19547051 C19.1263703,3.70371334 19.7032569,3.4102068 20.3120095,3.4102068 C20.7154546,3.4102068 21.1020562,3.5359628 21.429706,3.77404565 M6.14898123,6.43449633 C5.53157935,5.58493204 5.72061244,4.39144502 6.57040779,3.77404565 C6.89805756,3.5359628 7.28454544,3.410093 7.68799054,3.410093 C8.2968569,3.410093 8.87362975,3.70371334 9.23098309,4.1953567 C9.33466108,4.33806984 9.4137568,4.49102556 9.47248111,4.64876114 C9.09122834,5.24135072 8.82253049,5.9130357 8.69813967,6.6335436 C8.42511716,6.59086623 8.14913568,6.56947064 7.87235755,6.56947064 C7.3826469,6.56947064 6.90568262,6.63593354 6.45022782,6.76021005 C6.33835574,6.66461273 6.23695388,6.55558627 6.14898123,6.43449633 M4.3786027,19.1289101 C4.18695205,19.1911621 3.98881442,19.2228003 3.78976633,19.2228003 L3.78965252,19.2228003 C2.96227711,19.2226865 2.23448265,18.6936008 1.97853116,17.9059472 C1.65406798,16.9072966 2.20261674,15.8305749 3.201499,15.5058854 C3.38188277,15.447389 3.56795688,15.4168889 3.75516906,15.4134747 C4.21506233,15.9622488 4.77897501,16.4121253 5.42050392,16.7388632 C5.07817308,17.4223841 4.89528555,18.1558659 4.86171255,18.8905996 C4.71592604,18.9899525 4.55466181,19.0717793 4.3786027,19.1289101 M15.9047275,24.7354653 C15.9047275,25.7856702 15.050266,26.6401281 13.9999431,26.6401281 C12.949734,26.6401281 12.0952725,25.7856702 12.0952725,24.7354653 C12.0952725,24.5322072 12.1279351,24.3366879 12.1872284,24.1528907 C12.8603956,23.889429 13.4785942,23.4936106 13.9991464,22.9842134 C14.5200402,23.4940658 15.1390353,23.8898842 15.8128854,24.1533459 C15.8720649,24.3369155 15.9047275,24.532321 15.9047275,24.7354653 M20.943182,19.648436 C20.8088899,20.4972036 20.3519556,21.2425213 19.6568237,21.7475938 C19.1034951,22.1496716 18.4510407,22.362148 17.769907,22.362148 L17.7697932,22.362148 C17.1587645,22.3620342 16.5671968,22.1866586 16.0608704,21.8705046 C16.9549366,21.2988554 17.5999935,20.3705372 17.7933512,19.2876699 C17.9829534,19.3161215 18.1743764,19.3305749 18.3665961,19.3305749 L18.3667099,19.3305749 C19.3195004,19.3305749 20.2071934,18.9844898 20.8929932,18.3940626 C20.9906394,18.7996683 21.0104418,19.2239383 20.943182,19.648436 M26.861932,14 C26.861932,14.6214964 26.8167507,15.2324088 26.731168,15.8305749 C26.3808707,15.235823 25.8213965,14.7613644 25.1149977,14.5319308 C25.0316911,14.5048449 24.9474741,14.4825389 24.8625742,14.463078 C25.5060379,13.2271412 25.6735615,11.7442447 25.2100264,10.3174546 C24.7592377,8.93026923 23.7897176,7.82714444 22.5568485,7.19335696 C22.5992985,7.14259934 22.6406103,7.09070365 22.6797599,7.03675945 C23.1140466,6.43893477 23.2880572,5.73060415 23.2246668,5.04685569 C25.4743996,7.36418027 26.861932,10.5228751 26.861932,14 M13.9999431,0 C6.28031427,0 0,6.28040255 0,14 C0,21.7195975 6.28031427,28 13.9999431,28 C21.7195719,28 28,21.7195975 28,14 C28,6.28040255 21.7195719,0 13.9999431,0" id="Fill-1" fill="#FFFFFF" mask="url(#mask-2)"></path>
                </g>
            </g>
        </g>
    </g>
</svg>